<svg width="34" height="34" viewBox="0 0 34 34" fill="none" xmlns="http://www.w3.org/2000/svg">
<g clip-path="url(#clip0_1_303)">
<path d="M0 2.49389C0 1.15494 1.121 0.0681152 2.50288 0.0681152H31.3627C32.7451 0.0681152 33.8656 1.15494 33.8656 2.49389V31.5067C33.8656 32.8461 32.7451 33.9321 31.3627 33.9321H2.50288C1.12114 33.9321 0 32.8462 0 31.5071V2.49349V2.49389Z" fill="#006699"/>
<path d="M10.291 28.408V13.1623H5.2233V28.408H10.2915H10.291ZM7.75819 11.0811C9.52502 11.0811 10.625 9.9104 10.625 8.44737C10.5919 6.951 9.52502 5.81299 7.79179 5.81299C6.05737 5.81299 4.92459 6.951 4.92459 8.44724C4.92459 9.91027 6.02416 11.081 7.72499 11.081H7.75779L7.75819 11.0811ZM13.096 28.408H18.1633V19.895C18.1633 19.4399 18.1963 18.9837 18.3302 18.6587C18.6964 17.7479 19.5302 16.8052 20.9305 16.8052C22.7637 16.8052 23.4975 18.2031 23.4975 20.2528V28.408H28.5646V19.6665C28.5646 14.9839 26.0649 12.8048 22.7309 12.8048C19.9974 12.8048 18.7969 14.3326 18.1299 15.3731H18.1637V13.1628H13.0963C13.1624 14.593 13.0959 28.4085 13.0959 28.4085L13.096 28.408Z" fill="white"/>
</g>
<defs>
<clipPath id="clip0_1_303">
<rect width="33.8656" height="34" fill="white"/>
</clipPath>
</defs>
</svg>
